<?xml version="1.0" encoding="UTF-8"?>
<svg width="38px" height="38px" viewBox="0 0 38 38" version="1.1" xmlns="http://www.w3.org/2000/svg" xmlns:xlink="http://www.w3.org/1999/xlink">
    <title>纵深防御</title>
    <defs>
        <filter id="filter-1">
            <feColorMatrix in="SourceGraphic" type="matrix" values="0 0 0 0 0.000000 0 0 0 0 0.000000 0 0 0 0 0.000000 0 0 0 0.450000 0"></feColorMatrix>
        </filter>
    </defs>
    <g id="悬浮气泡页面" stroke="none" stroke-width="1" fill="none" fill-rule="evenodd">
        <g id="3-1平台切换-悬浮气泡交互" transform="translate(-1313.000000, -445.000000)">
            <g id="悬浮气泡" transform="translate(1048.000000, 205.000000)">
                <g id="纵深防御" transform="translate(236.000000, 18.000000)" filter="url(#filter-1)">
                    <g transform="translate(29.000000, 222.000000)">
                        <g id="编组" transform="translate(5.974609, 4.193359)" fill="#666666">
                            <path d="M2.66573711,8.19643301 C2.70162187,8.52221621 2.73353594,8.89275332 2.77008867,9.31784121 C2.9621668,11.5497846 3.25236211,14.922767 4.7169207,18.3111498 C5.51087578,20.148101 6.57023711,21.7784271 7.86550273,23.1568549 C9.27714336,24.6591537 11.0125262,25.9093314 13.0302742,26.878517 C15.0398211,25.9106303 16.7687469,24.6635697 18.1758973,23.166058 C19.4712,21.7876674 20.5305242,20.1573041 21.3244793,18.32039 C22.7890379,14.9320443 23.0792703,11.5590619 23.2713484,9.32708145 C23.3079383,8.90195645 23.3398523,8.53141934 23.3756629,8.20567324 C19.1491648,7.30603066 14.7878484,4.30662832 13.0145398,2.98223184 C11.2334012,4.3113041 6.88243828,7.29890566 2.66573711,8.19643301 L2.66573711,8.19643301 Z M13.0207742,29.6132924 C12.7899539,29.6132924 12.5601727,29.551765 12.3567391,29.4307514 C7.68192266,27.3097279 4.30953398,23.9159271 2.33249492,19.3417885 C0.700461719,15.5659838 0.375903125,11.7941127 0.182006641,9.54053457 C0.129014453,8.92477871 0.0832957031,8.39300137 0.0262957031,8.04383926 C-0.151012891,6.95642324 0.587946094,5.92374355 1.67354375,5.74175918 C6.52462969,4.92869277 12.1428777,0.375929102 12.1990613,0.330024805 C12.5875594,0.0126654297 13.1240867,-0.0526099609 13.5773777,0.162438867 C13.7117879,0.226192773 13.8316883,0.311173242 13.9339617,0.412333398 C14.6828289,1.00430215 19.8680105,4.99675137 24.3679305,5.7509623 C25.4534539,5.93294668 26.1923758,6.96555215 26.0151414,8.05293105 C25.9581785,8.40220449 25.9124598,8.93401895 25.8594305,9.5497748 C25.665534,11.80339 25.3409383,15.5752611 23.7089422,19.3510287 C21.712866,23.969142 18.2948328,27.3839096 13.5498426,29.5006283 C13.3807723,29.5760346 13.2004578,29.6132924 13.0207742,29.6132924 L13.0207742,29.6132924 Z" id="Fill-1"></path>
                            <polygon id="Fill-3" points="13.0625 0 13.0625 14.546875 2.1790625 14.546875 1.29882812 7.83007812 9.63593164 3.71668945"></polygon>
                            <polygon id="Fill-5" points="13.0253906 28.3144531 13.0625 14.546875 23.8684531 14.546875 22.5620918 18.7292129 19.3353945 23.8242188"></polygon>
                        </g>
                        <rect id="矩形" x="0" y="0" width="38" height="38"></rect>
                    </g>
                </g>
            </g>
        </g>
    </g>
</svg>